# xmcd CD database file
# Copyright (C) 1997 Ti Kan
# 
# Track frame offsets:
#     150
#     15495
#     26582
#     42045
#     59425
#     77482
#     93595
#     107070
#     124005
#     142800
# 
# Disc length: 2089 seconds
# 
# Revision: 1
# Processed by: cddbd v1.4b41PL1 Copyright (c) Steve Scherf et al.
# Submitted via: DiscPlay 4.0.2
# 
DISCID=7308270a
DTITLE=Wilcox and Pardoe - ...Till They Know How Much You Care
DYEAR=1900
DGENRE=
TTITLE0=Till They Know How Much You Care
TTITLE1=On a Ring and a Prayer
TTITLE2=I Think About You
TTITLE3=The Best Tears Of Our Lives
TTITLE4=To Keep The River Runnin'
TTITLE5=Let It Burn
TTITLE6=In Their Children's Eyes
TTITLE7=What a Treasure
TTITLE8=You're Still Mine
TTITLE9=As Far As The Heart Can See
EXTD=
EXTT0=
EXTT1=
EXTT2=
EXTT3=
EXTT4=
EXTT5=
EXTT6=
EXTT7=
EXTT8=
EXTT9=
PLAYORDER=
